<svg width="514" height="169" viewBox="0 0 514 169" fill="none" xmlns="http://www.w3.org/2000/svg">
<g clip-path="url(#clip0_1_201)">
<path d="M268.417 25.5008L257.548 21.5449L246.678 25.5008L246.679 39.3286L257.548 43.2844L268.417 39.3286V25.5008Z" fill="black"/>
<path d="M289.922 3.95216L279.092 0.0390625L268.261 3.95216L257.43 0.0390625L246.596 3.95324L235.768 0.0390625L224.938 3.95216V17.6304L235.768 21.5448L246.599 17.6304L257.43 21.5448L268.261 17.6304L279.092 21.5448L289.922 17.6304V3.95216Z" fill="#3B7698"/>
<path d="M246.677 3.89543L235.808 7.75308L224.938 3.89543L235.808 0.0390625L246.677 3.89543Z" fill="black"/>
<path d="M268.417 3.89543L257.548 7.75308L246.678 3.89543L257.548 0.0390625L268.417 3.89543Z" fill="black"/>
<path d="M289.924 3.89543L279.17 7.75308L268.418 3.89543L279.17 0.0390625L289.924 3.89543Z" fill="black"/>
<path d="M268.415 25.5194L257.546 29.4701L246.678 25.5181V39.3319L257.547 43.2837L268.417 39.3319L268.415 25.5194Z" fill="#3B7698"/>
<path d="M268.417 47.1981L257.548 43.2847L246.678 47.1981L246.679 60.8769L257.548 64.7904L268.417 60.8769V47.1981Z" fill="black"/>
<path d="M268.415 47.2589L257.546 51.1576L246.678 47.2578V60.8896L257.547 64.7897L268.417 60.8896L268.415 47.2589Z" fill="#3B7698"/>
<path fill-rule="evenodd" clip-rule="evenodd" d="M285.654 29.8761L282.112 29.0537L278.623 28.2436L278.119 28.1266C277.725 28.137 277.329 28.3844 276.956 28.869L274.655 31.8712C274.302 32.3276 274.302 32.4995 274.655 32.9548L276.956 35.957C277.329 36.4415 277.725 36.689 278.119 36.6993L278.623 36.5823L282.112 35.7724L285.65 34.9512C285.788 34.8894 285.927 34.8572 286.067 34.8545C286.476 34.8467 286.887 35.0939 287.274 35.5962L289.924 39.3212L279.17 43.2844L268.418 39.3212V25.4958L279.17 21.5449L289.924 25.4958L287.274 29.2332C286.888 29.7344 286.477 29.9807 286.067 29.9718C285.929 29.9688 285.791 29.9369 285.654 29.8761Z" fill="black"/>
<path fill-rule="evenodd" clip-rule="evenodd" d="M285.654 51.3825L282.112 50.5601L278.623 49.75L278.119 49.6329C277.725 49.6433 277.329 49.8908 276.956 50.3753L274.655 53.3776C274.302 53.8339 274.302 54.0059 274.655 54.4611L276.956 57.4633C277.329 57.9479 277.725 58.1953 278.119 58.2057L278.623 58.0887L282.112 57.2788L285.65 56.4575C285.788 56.3957 285.927 56.3635 286.067 56.3609C286.476 56.3531 286.887 56.6003 287.274 57.1025L289.924 60.8275L279.17 64.7908L268.418 60.8275V47.0022L279.17 43.0513L289.924 47.0022L287.274 50.7395C286.888 51.2407 286.477 51.4871 286.067 51.4782C285.929 51.4752 285.791 51.4433 285.654 51.3825Z" fill="black"/>
<path fill-rule="evenodd" clip-rule="evenodd" d="M229.441 29.8761L232.984 29.0537L236.473 28.2436L236.977 28.1266C237.371 28.137 237.766 28.3844 238.14 28.869L240.44 31.8712C240.794 32.3276 240.794 32.4995 240.44 32.9548L238.14 35.957C237.766 36.4415 237.371 36.689 236.977 36.6993L236.473 36.5823L232.983 35.7724L229.445 34.9512C229.307 34.8894 229.168 34.8572 229.029 34.8545C228.62 34.8467 228.209 35.0939 227.821 35.5962L225.172 39.3212L235.925 43.2844L246.678 39.3212V25.4958L235.925 21.5449L225.172 25.4958L227.821 29.2332C228.208 29.7344 228.619 29.9807 229.029 29.9718C229.167 29.9688 229.305 29.9369 229.441 29.8761Z" fill="black"/>
<path fill-rule="evenodd" clip-rule="evenodd" d="M229.441 51.3825L232.984 50.5601L236.473 49.75L236.977 49.6329C237.371 49.6433 237.766 49.8908 238.14 50.3753L240.44 53.3776C240.794 53.8339 240.794 54.0059 240.44 54.4611L238.14 57.4633C237.766 57.9479 237.371 58.1953 236.977 58.2057L236.473 58.0887L232.983 57.2788L229.445 56.4575C229.307 56.3957 229.168 56.3635 229.029 56.3609C228.62 56.3531 228.209 56.6003 227.821 57.1025L225.172 60.8275L235.925 64.7908L246.678 60.8275V47.0022L235.925 43.0513L225.172 47.0022L227.821 50.7395C228.208 51.2407 228.619 51.4871 229.029 51.4782C229.167 51.4752 229.305 51.4433 229.441 51.3825Z" fill="black"/>
<path d="M101.295 84.5973H97.5546V101.79H101.32L109.372 90.2458V101.79H113.113V84.5973H109.322L101.295 96.0676V84.5973Z" fill="black"/>
<path d="M131.062 84.5973V91.3358H123.16V84.5973H119.369V101.79H123.16V94.8042H131.062V101.79H134.828V84.5973H131.062Z" fill="black"/>
<path d="M149.856 92.847L143.663 84.5973H139.451L145.397 92.5497L139.005 101.79H143.465L149.856 92.847ZM149.856 101.79H153.622V84.5973H149.856V101.79ZM153.622 92.8223L160.014 101.79H164.473L158.081 92.5497L164.052 84.5973H159.815L153.622 92.8223Z" fill="black"/>
<path d="M168.659 101.79H181.79V98.3221H172.45V94.7546H178.965V91.4102H172.45V88.0657H181.69V84.5973H168.659V101.79Z" fill="black"/>
<path d="M198.756 84.5973V91.3358H190.853V84.5973H187.063V101.79H190.853V94.8042H198.756V101.79H202.522V84.5973H198.756Z" fill="black"/>
<path d="M208.805 101.79H221.935V98.3221H212.595V94.7546H219.111V91.4102H212.595V88.0657H221.836V84.5973H208.805V101.79Z" fill="black"/>
<path d="M233.823 92.5497H230.998V88.0161H233.823C235.359 88.0161 236.349 88.9328 236.349 90.2458C236.349 91.5836 235.359 92.5497 233.823 92.5497ZM227.208 101.79H230.998V95.8447H233.971C237.489 95.8447 240.239 93.8628 240.239 90.2458C240.239 86.604 237.539 84.5973 233.971 84.5973H227.208V101.79Z" fill="black"/>
<path d="M256.772 84.5973V91.3358H248.869V84.5973H245.079V101.79H248.869V94.8042H256.772V101.79H260.538V84.5973H256.772Z" fill="black"/>
<path d="M264.814 101.79H268.728L270.041 98.5202H277.548L278.836 101.79H282.874L275.764 84.5973H271.9L264.814 101.79ZM271.379 95.1262L273.782 89.0566L276.185 95.1262H271.379Z" fill="black"/>
<path d="M285.401 101.79H289.711L293.427 95.8694H296.103V101.79H299.869V84.5973H292.858C289.241 84.5973 286.54 86.6536 286.54 90.221C286.54 92.5002 287.853 94.2096 289.662 95.1262L285.401 101.79ZM290.405 90.2953C290.405 88.9575 291.421 88.0905 293.081 88.0905H296.103V92.5497H293.105C291.495 92.5497 290.405 91.6331 290.405 90.2953Z" fill="black"/>
<path d="M314.023 101.79H335.923V84.5973H332.157V98.2973H326.856V84.5973H323.09V98.2973H317.788V84.5973H314.023V101.79Z" fill="black"/>
<path d="M345.991 101.79V84.5973H342.2V101.79H345.991ZM345.991 92.2277L353.026 101.79H357.486L350.376 92.079L356.396 84.5973H352.209L345.991 92.2277Z" fill="black"/>
<path d="M368.046 98.4459C365.098 98.4459 362.844 96.1915 362.844 93.1939C362.844 90.1962 365.098 87.9418 368.046 87.9418C370.969 87.9418 373.224 90.221 373.224 93.1939C373.224 96.1667 370.969 98.4459 368.046 98.4459ZM358.954 93.1939C358.954 98.2725 362.819 102.038 368.046 102.038C373.249 102.038 377.113 98.2725 377.113 93.1939C377.113 88.1152 373.249 84.3496 368.046 84.3496C362.819 84.3496 358.954 88.1152 358.954 93.1939Z" fill="black"/>
<path d="M381.045 101.914C384.959 101.914 386.52 99.536 386.52 95.9685V88.0657H392.515V101.79H396.28V84.5973H382.903V95.7208C382.903 97.7275 382.135 98.4459 380.623 98.4459H379.657V101.914H381.045Z" fill="black"/>
<path d="M400.556 101.79H404.471L405.784 98.5202H413.29L414.578 101.79H418.617L411.506 84.5973H407.642L400.556 101.79ZM407.121 95.1262L409.525 89.0566L411.928 95.1262H407.121Z" fill="black"/>
<path d="M4.48499 117.898H0.744141V135.091H4.50976L12.5613 123.546V135.091H16.3021V117.898H12.5117L4.48499 129.368V117.898Z" fill="black"/>
<path d="M34.2519 117.898V124.637H26.3491V117.898H22.5587V135.091H26.3491V128.105H34.2519V135.091H38.0175V117.898H34.2519Z" fill="black"/>
<path d="M50.9152 133.877H51.4107V135.834H55.1515V133.877H55.6222C59.5613 133.877 63.6242 131.152 63.6242 126.296C63.6242 121.441 59.5613 118.716 55.6222 118.716H55.1515V116.734H51.4107V118.716H50.9152C47.0009 118.716 42.9628 121.441 42.9628 126.296C42.9628 131.152 47.0009 133.877 50.9152 133.877ZM46.7532 126.296C46.7532 123.323 49.1315 122.035 50.9152 122.035H51.4107V130.582H50.9152C49.1315 130.582 46.7532 129.269 46.7532 126.296ZM55.1515 130.582V122.035H55.6222C57.406 122.035 59.7842 123.323 59.7842 126.296C59.7842 129.269 57.406 130.582 55.6222 130.582H55.1515Z" fill="black"/>
<path d="M76.4367 131.747C73.4886 131.747 71.2342 129.492 71.2342 126.495C71.2342 123.497 73.4886 121.242 76.4367 121.242C79.36 121.242 81.6144 123.522 81.6144 126.495C81.6144 129.467 79.36 131.747 76.4367 131.747ZM67.3447 126.495C67.3447 131.573 71.2094 135.339 76.4367 135.339C81.6392 135.339 85.5039 131.573 85.5039 126.495C85.5039 121.416 81.6392 117.65 76.4367 117.65C71.2094 117.65 67.3447 121.416 67.3447 126.495Z" fill="black"/>
<path d="M97.2055 125.85H94.3813V121.317H97.2055C98.7415 121.317 99.7324 122.233 99.7324 123.546C99.7324 124.884 98.7415 125.85 97.2055 125.85ZM90.5909 135.091H94.3813V129.145H97.3541C100.872 129.145 103.622 127.163 103.622 123.546C103.622 119.905 100.922 117.898 97.3541 117.898H90.5909V135.091Z" fill="black"/>
<path d="M108.462 135.091H112.153V122.679L117.529 129.145L122.88 122.63V135.091H126.547V117.898H122.608L117.529 123.918L112.451 117.898H108.462V135.091Z" fill="black"/>
<path d="M130.834 135.091H134.749L136.062 131.821H143.568L144.856 135.091H148.894L141.784 117.898H137.92L130.834 135.091ZM137.399 128.427L139.802 122.357L142.205 128.427H137.399Z" fill="black"/>
<path d="M170.422 131.598H168.366V117.898H164.6V131.598H156.945V117.898H153.18V135.091H166.756V138.535H170.422V131.598Z" fill="black"/>
<path d="M178.953 117.898H175.212V135.091H178.978L187.029 123.546V135.091H190.77V117.898H186.979L178.953 129.368V117.898Z" fill="black"/>
<path d="M204.905 131.747C201.956 131.747 199.702 129.492 199.702 126.495C199.702 123.497 201.956 121.242 204.905 121.242C207.828 121.242 210.082 123.522 210.082 126.495C210.082 129.467 207.828 131.747 204.905 131.747ZM195.813 126.495C195.813 131.573 199.677 135.339 204.905 135.339C210.107 135.339 213.972 131.573 213.972 126.495C213.972 121.416 210.107 117.65 204.905 117.65C199.677 117.65 195.813 121.416 195.813 126.495Z" fill="black"/>
<path d="M230.752 117.898V124.637H222.849V117.898H219.059V135.091H222.849V128.105H230.752V135.091H234.518V117.898H230.752Z" fill="black"/>
<path d="M252.494 117.898V124.637H244.591V117.898H240.801V135.091H244.591V128.105H252.494V135.091H256.26V117.898H252.494Z" fill="black"/>
<path d="M281.42 117.898H277.63V135.091H281.42V117.898ZM262.543 135.091H269.38C273.047 135.091 275.698 133.084 275.698 129.418C275.698 125.826 272.997 123.819 269.355 123.819H266.308V117.898H262.543V135.091ZM266.308 131.672V127.139H269.232C270.842 127.139 271.833 128.055 271.833 129.418C271.833 130.78 270.842 131.672 269.232 131.672H266.308Z" fill="black"/>
<path d="M290.569 117.898H285.986L292.353 126.371L285.738 135.091H290.073L294.681 129.096L299.314 135.091H303.947L297.332 126.371L303.674 117.898H299.364L295.003 123.745L290.569 117.898Z" fill="black"/>
<path d="M314.497 121.391H320.195V135.091H323.961V121.391H329.683V117.898H314.497V121.391Z" fill="black"/>
<path d="M334.365 135.091H347.496V131.623H338.156V128.055H344.671V124.711H338.156V121.366H347.396V117.898H334.365V135.091Z" fill="black"/>
<path d="M355.618 117.898H351.035L357.401 126.371L350.787 135.091H355.122L359.73 129.096L364.363 135.091H368.996L362.381 126.371L368.723 117.898H364.412L360.052 123.745L355.618 117.898Z" fill="black"/>
<path d="M384.994 117.898V124.637H377.091V117.898H373.301V135.091H377.091V128.105H384.994V135.091H388.76V117.898H384.994Z" fill="black"/>
<path d="M402.921 131.747C399.973 131.747 397.718 129.492 397.718 126.495C397.718 123.497 399.973 121.242 402.921 121.242C405.844 121.242 408.099 123.522 408.099 126.495C408.099 129.467 405.844 131.747 402.921 131.747ZM393.829 126.495C393.829 131.573 397.694 135.339 402.921 135.339C408.124 135.339 411.988 131.573 411.988 126.495C411.988 121.416 408.124 117.65 402.921 117.65C397.694 117.65 393.829 121.416 393.829 126.495Z" fill="black"/>
<path d="M415.92 135.215C419.834 135.215 421.395 132.837 421.395 129.269V121.366H427.39V135.091H431.155V117.898H417.778V129.021C417.778 131.028 417.01 131.747 415.498 131.747H414.532V135.215H415.92Z" fill="black"/>
<path d="M445.316 131.747C442.368 131.747 440.114 129.492 440.114 126.495C440.114 123.497 442.368 121.242 445.316 121.242C448.24 121.242 450.494 123.522 450.494 126.495C450.494 129.467 448.24 131.747 445.316 131.747ZM436.224 126.495C436.224 131.573 440.089 135.339 445.316 135.339C450.519 135.339 454.383 131.573 454.383 126.495C454.383 121.416 450.519 117.65 445.316 117.65C440.089 117.65 436.224 121.416 436.224 126.495Z" fill="black"/>
<path d="M471.436 117.898H459.47V135.091H463.236V121.391H471.436V117.898Z" fill="black"/>
<path d="M479.824 117.898H476.083V135.091H479.849L487.901 123.546V135.091H491.641V117.898H487.851L479.824 129.368V117.898Z" fill="black"/>
<path d="M501.639 117.898H497.898V135.091H501.664L509.715 123.546V135.091H513.456V117.898H509.665L501.639 129.368V117.898ZM501.317 112.398C501.317 114.999 503.2 116.585 505.627 116.585C508.055 116.585 509.913 114.999 509.913 112.398H507.163C507.163 113.34 506.544 114.157 505.627 114.157C504.686 114.157 504.116 113.34 504.116 112.398H501.317Z" fill="black"/>
<path d="M119.025 151.199H115.284V168.392H119.05L127.102 156.847V168.392H130.842V151.199H127.052L119.025 162.669V151.199Z" fill="black"/>
<path d="M151.569 159.151H148.744V154.618H151.569C153.105 154.618 154.096 155.534 154.096 156.847C154.096 158.185 153.105 159.151 151.569 159.151ZM144.954 168.392H148.744V162.446H151.717C155.235 162.446 157.985 160.464 157.985 156.847C157.985 153.205 155.285 151.199 151.717 151.199H144.954V168.392Z" fill="black"/>
<path d="M170.461 165.047C167.513 165.047 165.259 162.793 165.259 159.795C165.259 156.798 167.513 154.543 170.461 154.543C173.384 154.543 175.639 156.822 175.639 159.795C175.639 162.768 173.384 165.047 170.461 165.047ZM161.369 159.795C161.369 164.874 165.234 168.639 170.461 168.639C175.664 168.639 179.528 164.874 179.528 159.795C179.528 154.717 175.664 150.951 170.461 150.951C165.234 150.951 161.369 154.717 161.369 159.795Z" fill="black"/>
<path d="M192.246 157.764H188.381V154.692H196.854V151.199H184.615V168.392H192.246C195.962 168.392 198.191 166.187 198.191 163.016C198.191 159.597 195.788 157.764 192.246 157.764ZM188.381 165.146V160.761H191.775C193.336 160.761 194.327 161.554 194.327 162.917C194.327 164.255 193.336 165.146 191.775 165.146H188.381Z" fill="black"/>
<path d="M210.897 165.047C207.949 165.047 205.694 162.793 205.694 159.795C205.694 156.798 207.949 154.543 210.897 154.543C213.82 154.543 216.074 156.822 216.074 159.795C216.074 162.768 213.82 165.047 210.897 165.047ZM201.805 159.795C201.805 164.874 205.669 168.639 210.897 168.639C216.099 168.639 219.964 164.874 219.964 159.795C219.964 154.717 216.099 150.951 210.897 150.951C205.669 150.951 201.805 154.717 201.805 159.795Z" fill="black"/>
<path d="M222.739 154.692H228.437V168.392H232.203V154.692H237.925V151.199H222.739V154.692Z" fill="black"/>
<path d="M249.784 165.047C246.836 165.047 244.581 162.793 244.581 159.795C244.581 156.798 246.836 154.543 249.784 154.543C252.707 154.543 254.962 156.822 254.962 159.795C254.962 162.768 252.707 165.047 249.784 165.047ZM240.692 159.795C240.692 164.874 244.557 168.639 249.784 168.639C254.986 168.639 258.851 164.874 258.851 159.795C258.851 154.717 254.986 150.951 249.784 150.951C244.557 150.951 240.692 154.717 240.692 159.795Z" fill="black"/>
<path d="M261.626 154.692H267.324V168.392H271.09V154.692H276.813V151.199H261.626V154.692Z" fill="black"/>
<path d="M281.495 168.392H294.625V164.923H285.285V161.356H291.8V158.012H285.285V154.667H294.526V151.199H281.495V168.392Z" fill="black"/>
<path d="M302.747 151.199H298.164L304.531 159.671L297.916 168.392H302.251L306.859 162.396L311.492 168.392H316.125L309.51 159.671L315.852 151.199H311.542L307.181 157.045L302.747 151.199Z" fill="black"/>
<path d="M332.123 151.199V157.937H324.221V151.199H320.43V168.392H324.221V161.406H332.123V168.392H335.889V151.199H332.123Z" fill="black"/>
<path d="M345.913 151.199H342.172V168.392H345.938L353.989 156.847V168.392H357.73V151.199H353.94L345.913 162.669V151.199Z" fill="black"/>
<path d="M367.777 168.392V151.199H363.987V168.392H367.777ZM367.777 158.829L374.813 168.392H379.272L372.162 158.68L378.182 151.199H373.995L367.777 158.829Z" fill="black"/>
<path d="M387.098 151.199H383.358V168.392H387.123L395.175 156.847V168.392H398.916V151.199H395.125L387.098 162.669V151.199Z" fill="black"/>
</g>
<defs>
<clipPath id="clip0_1_201">
<rect width="514" height="169" fill="white"/>
</clipPath>
</defs>
</svg>
